<?xml version="1.0" standalone="no"?>
<!DOCTYPE svg PUBLIC "-//W3C//DTD SVG 20010904//EN"
 "http://www.w3.org/TR/2001/REC-SVG-20010904/DTD/svg10.dtd">
<svg version="1.0" xmlns="http://www.w3.org/2000/svg"
 width="150.000000pt" height="150.000000pt" viewBox="0 0 150.000000 150.000000"
 preserveAspectRatio="xMidYMid meet">
<metadata>
Created by potrace 1.14, written by Peter Selinger 2001-2017
</metadata>
<g transform="translate(0.000000,150.000000) scale(0.100000,-0.100000)"
fill="#000000" stroke="none">
<path d="M0 753 c0 -446 4 -724 10 -733 6 -10 10 -11 10 -2 0 6 9 12 21 12 12
0 17 -4 14 -11 -4 -6 2 -5 13 2 17 11 24 10 38 -2 11 -9 15 -9 10 -1 -9 16 6
16 23 -1 11 -9 13 -9 7 0 -4 8 -1 13 8 13 8 0 17 -6 19 -12 4 -10 6 -10 6 0 1
6 10 12 22 12 13 0 18 -4 13 -12 -6 -10 -4 -10 7 -1 16 16 33 17 24 2 -4 -6 2
-5 13 2 17 11 24 10 38 -2 10 -8 15 -9 11 -3 -4 7 2 12 18 12 14 0 25 -4 25
-9 0 -5 5 -9 11 -9 5 0 7 5 4 10 -9 14 8 12 24 -3 9 -7 11 -7 8 -1 -4 7 0 14
8 17 10 4 12 1 8 -10 -5 -12 -3 -14 8 -7 24 14 51 16 43 2 -6 -10 -4 -11 7 0
15 14 33 16 25 3 -7 -10 20 -9 30 2 10 10 26 9 20 -1 -3 -5 1 -9 9 -9 8 0 12
4 9 9 -3 4 1 8 10 8 8 0 17 -6 19 -12 4 -10 6 -10 6 0 1 6 6 12 12 12 5 0 7
-6 3 -12 -5 -8 -1 -8 10 1 15 13 19 13 27 0 6 -10 9 -10 9 -2 0 15 21 13 32
-2 5 -6 8 -5 8 3 0 6 9 12 21 12 11 0 18 -4 15 -9 -7 -10 20 -9 30 2 12 12 26
8 18 -5 -6 -9 -3 -9 9 1 10 8 24 10 34 6 23 -10 56 -6 65 9 5 7 8 3 8 -9 0
-11 4 -15 8 -10 9 13 46 19 38 7 -7 -11 19 -10 30 1 13 13 46 8 38 -5 -5 -8
-1 -8 10 1 15 13 19 13 27 0 6 -10 9 -10 9 -1 0 14 21 12 32 -3 5 -6 8 -5 8 3
0 6 7 12 16 12 9 0 12 -5 8 -12 -6 -10 -4 -10 7 -1 18 17 53 17 43 1 -6 -10
-5 -10 7 -1 12 10 18 10 29 0 8 -7 10 -7 7 -1 -4 7 3 12 18 12 15 0 22 -5 18
-12 -3 -6 0 -6 8 2 17 16 32 16 23 0 -6 -10 -4 -10 7 -1 18 17 53 17 43 1 -6
-10 -5 -10 7 -1 12 10 18 10 29 0 8 -7 10 -7 7 -1 -4 7 3 12 18 12 16 0 22 -5
18 -12 -4 -6 1 -5 10 3 14 11 20 11 34 0 13 -11 15 -11 9 -1 -6 9 -3 12 10 10
18 -3 19 23 22 720 l2 722 -750 0 -750 0 0 -717z"/>
</g>
</svg>
